<svg width="27" height="51" viewBox="0 0 27 51" fill="none" xmlns="http://www.w3.org/2000/svg">
<path d="M26.2879 33.2065C26.2879 26.4821 20.4844 24.2221 15.3504 22.2411C11.3884 20.7065 7.98438 19.3951 7.98438 16.4375C7.98438 13.8984 10.4397 12.1406 13.9833 12.1406C18.1685 12.1406 21.5446 15.1261 21.5725 15.154C21.7958 15.3214 22.0469 15.4051 22.3259 15.3493C22.6049 15.3214 22.8281 15.154 22.9676 14.9029L25.2277 10.8292C25.423 10.4944 25.3672 10.0759 25.0882 9.76897C24.9766 9.65736 21.9632 6.58817 16.2991 5.94643V1.03571C16.2991 0.533482 15.9085 0.142854 15.4062 0.142854H11.6395C11.1652 0.142854 10.7467 0.533482 10.7467 1.03571V6.05803C4.91518 7.17411 0.897321 11.4152 0.897321 16.5491C0.897321 23.5525 7.14732 26.0636 12.1696 28.0446C15.9364 29.5513 19.2288 30.8627 19.2288 33.5413C19.2288 36.6942 16.2712 38.1451 13.5368 38.1451C8.59821 38.1451 4.69196 34.4062 4.63616 34.3783C4.46875 34.183 4.21763 34.0993 3.96652 34.1272C3.7154 34.1551 3.46429 34.2667 3.32478 34.4621L0.450893 38.2288C0.199777 38.5636 0.227679 39.0379 0.506696 39.3728C0.646205 39.5402 4.21763 43.4464 10.7467 44.3672V49.25C10.7467 49.7522 11.1652 50.1429 11.6395 50.1429H15.4062C15.9085 50.1429 16.2991 49.7522 16.2991 49.25V44.3672C22.2143 43.3906 26.2879 38.8984 26.2879 33.2065Z" fill="#9ACA40"/>
</svg>
