<svg width="43" height="44" viewBox="0 0 43 44" fill="none" xmlns="http://www.w3.org/2000/svg">
<path d="M25 12.3214C25 11.8192 24.6094 11.4286 24.1071 11.4286H22.3214C21.8192 11.4286 21.4286 11.8192 21.4286 12.3214V22.1429H15.1786C14.6763 22.1429 14.2857 22.5335 14.2857 23.0357V24.8214C14.2857 25.3237 14.6763 25.7143 15.1786 25.7143H24.1071C24.6094 25.7143 25 25.3237 25 24.8214V12.3214ZM36.6071 22.1429C36.6071 30.5134 29.7991 37.3214 21.4286 37.3214C13.058 37.3214 6.25 30.5134 6.25 22.1429C6.25 13.7723 13.058 6.96428 21.4286 6.96428C29.7991 6.96428 36.6071 13.7723 36.6071 22.1429ZM42.8571 22.1429C42.8571 10.3125 33.2589 0.714284 21.4286 0.714284C9.59821 0.714284 0 10.3125 0 22.1429C0 33.9732 9.59821 43.5714 21.4286 43.5714C33.2589 43.5714 42.8571 33.9732 42.8571 22.1429Z" fill="#9ACA40"/>
</svg>
