<svg width="78" height="57" viewBox="0 0 78 57" fill="none" xmlns="http://www.w3.org/2000/svg">
<path d="M51.8622 30C51.8622 30.683 51.2997 31.2857 50.5765 31.2857H41.5765V45.4286C41.5765 46.1116 40.9738 46.7143 40.2907 46.7143H32.5765C31.8934 46.7143 31.2907 46.1116 31.2907 45.4286V31.2857H22.2907C21.5675 31.2857 21.005 30.7232 21.005 30C21.005 29.6384 21.1657 29.317 21.4068 29.0357L35.5095 14.933C35.7506 14.692 36.1122 14.5714 36.4336 14.5714C36.7952 14.5714 37.1166 14.692 37.3577 14.933L51.5006 29.0759C51.7416 29.317 51.8622 29.6786 51.8622 30ZM77.5765 41.5714C77.5765 34.4196 72.6345 28.192 65.6434 26.5446C66.7282 24.8973 67.2907 22.9687 67.2907 21C67.2907 15.3348 62.6702 10.7143 57.005 10.7143C54.5541 10.7143 52.1836 11.5982 50.3354 13.2054C47.1613 5.49107 39.6479 0.428568 31.2907 0.428568C19.9202 0.428568 10.7193 9.62946 10.7193 21C10.7193 21.5625 10.7595 22.125 10.7997 22.7277C4.49163 25.6607 0.433594 32.0089 0.433594 39C0.433594 48.9241 8.50949 57 18.4336 57H62.1479C70.6657 57 77.5765 50.0893 77.5765 41.5714Z" fill="black"/>
</svg>
