<svg width="65" height="63" viewBox="0 0 65 63" fill="none" xmlns="http://www.w3.org/2000/svg">
<path d="M10.3521 49.2857C10.3521 50.7321 9.18694 51.8571 7.78069 51.8571C6.33426 51.8571 5.20926 50.7321 5.20926 49.2857C5.20926 47.8795 6.33426 46.7143 7.78069 46.7143C9.18694 46.7143 10.3521 47.8795 10.3521 49.2857ZM16.7807 28.7143C16.7807 27.308 15.6155 26.1429 14.2093 26.1429H2.63783C1.23158 26.1429 0.0664062 27.308 0.0664062 28.7143V54.4286C0.0664062 55.8348 1.23158 57 2.63783 57H14.2093C15.6155 57 16.7807 55.8348 16.7807 54.4286V28.7143ZM64.3521 28.7143C64.3521 24.5357 60.8164 21 56.6378 21H45.5084C45.8298 19.7143 46.2316 19.3125 46.6736 18.4286C47.7584 16.3393 48.9236 14.0089 48.9236 10.7143C48.9236 7.62053 48.9236 0.428568 39.9236 0.428568C39.2405 0.428568 38.5977 0.709818 38.1155 1.19196C36.3878 2.87946 35.9057 5.37053 35.4637 7.74107C34.9816 10.0714 34.5396 12.4821 32.9727 14.0491C31.7271 15.2946 30.361 17.0223 28.9146 18.8705C27.1468 21.2009 23.2896 25.9821 21.803 26.1027C20.4771 26.2232 19.3521 27.3482 19.3521 28.6741V54.4286C19.3521 55.8348 20.5575 56.9598 21.9235 57C23.3298 57.0402 25.7405 57.8839 28.2718 58.7679C32.6111 60.2545 38.0352 62.1429 43.7807 62.1429H44.4637H47.5173C48.2405 62.1429 48.803 62.1429 48.9637 62.1429C52.4994 62.1027 55.1512 61.058 56.8789 59.0089C58.4057 57.2009 59.0887 54.75 58.8477 51.7366C59.8521 50.7723 60.6155 49.4464 61.0173 47.9598C61.4593 46.3527 61.4593 44.7455 61.0173 43.2589C62.2227 41.6518 62.8253 39.7634 62.745 37.7545C62.745 37.192 62.5843 35.9866 62.1423 34.7009C63.5084 33.1339 64.3521 30.8437 64.3521 28.7143Z" fill="#C4CACB"/>
</svg>
