<svg width="43" height="44" viewBox="0 0 43 44" fill="none" xmlns="http://www.w3.org/2000/svg">
<path d="M28.5714 22.1429C28.5714 26.077 25.3627 29.2857 21.4286 29.2857C17.4944 29.2857 14.2857 26.077 14.2857 22.1429C14.2857 18.2087 17.4944 15 21.4286 15C25.3627 15 28.5714 18.2087 28.5714 22.1429ZM42.8571 19.1016C42.8571 18.6272 42.5223 18.1808 42.048 18.0971L36.942 17.3158C36.6629 16.3951 36.2723 15.4743 35.798 14.5815C36.7467 13.2701 37.779 12.0424 38.7277 10.7589C38.8672 10.5636 38.9509 10.3683 38.9509 10.1172C38.9509 9.89397 38.8951 9.67076 38.7556 9.50335C37.5837 7.85714 35.6306 6.12723 34.1518 4.76004C33.9565 4.59263 33.7054 4.48103 33.4542 4.48103C33.2031 4.48103 32.952 4.56473 32.7846 4.73214L28.8225 7.71763C28.0134 7.29911 27.1763 6.96428 26.3114 6.68527L25.5301 1.55134C25.4743 1.07701 25.0279 0.714284 24.5257 0.714284H18.3315C17.8292 0.714284 17.4386 1.04911 17.327 1.49553C16.8806 3.16964 16.7132 4.98326 16.5179 6.68527C15.6529 6.96428 14.7879 7.32701 13.9788 7.74553L10.1283 4.76004C9.90513 4.59263 9.65402 4.48103 9.4029 4.48103C8.45424 4.48103 4.6875 8.55469 4.01786 9.47545C3.87835 9.67076 3.76674 9.86607 3.76674 10.1172C3.76674 10.3683 3.87835 10.5915 4.04576 10.7868C5.07813 12.0424 6.08259 13.298 7.03125 14.6373C6.58482 15.4743 6.2221 16.3114 5.94308 17.2042L0.753348 17.9855C0.334821 18.0692 0 18.5714 0 18.99V25.1842C0 25.6585 0.334821 26.1049 0.809152 26.1886L5.91518 26.942C6.1942 27.8906 6.58482 28.8114 7.05915 29.7042C6.11049 31.0156 5.07813 32.2433 4.12946 33.5268C3.98996 33.7221 3.90625 33.9174 3.90625 34.1685C3.90625 34.3917 3.96205 34.615 4.10156 34.8103C5.27344 36.4286 7.22656 38.1585 8.70536 39.4978C8.90067 39.6931 9.15179 39.8047 9.4029 39.8047C9.65402 39.8047 9.90513 39.721 10.1004 39.5536L14.0346 36.5681C14.8438 36.9866 15.6808 37.3214 16.5458 37.6004L17.327 42.7344C17.3828 43.2087 17.8292 43.5714 18.3315 43.5714H24.5257C25.0279 43.5714 25.4185 43.2366 25.5301 42.7902C25.9766 41.1161 26.144 39.3025 26.3393 37.6004C27.2042 37.3214 28.0692 36.9587 28.8783 36.5402L32.7288 39.5536C32.952 39.6931 33.2031 39.8047 33.4542 39.8047C34.4029 39.8047 38.1696 35.7031 38.8393 34.8103C39.0067 34.615 39.0904 34.4196 39.0904 34.1685C39.0904 33.9174 38.9788 33.6663 38.8114 33.471C37.779 32.2154 36.7746 30.9877 35.8259 29.6205C36.2723 28.8114 36.6071 27.9743 36.9141 27.0815L42.0759 26.3002C42.5223 26.2165 42.8571 25.7143 42.8571 25.2958V19.1016Z" fill="#9ACA40"/>
</svg>
