<svg width="23" height="15" viewBox="0 0 23 15" fill="none" xmlns="http://www.w3.org/2000/svg">
<path d="M14.2802 7.7066C14.2802 7.23774 14.2313 6.87633 14.163 6.51492H7.40359V8.97642H11.467C11.301 10.0216 10.2363 12.0631 7.40359 12.0631C4.96162 12.0631 2.96897 10.0411 2.96897 7.54054C2.96897 5.03996 4.96162 3.01801 7.40359 3.01801C8.8004 3.01801 9.72835 3.61385 10.2558 4.12178L12.1996 2.25612C10.9493 1.08397 9.33763 0.380681 7.40359 0.380681C3.4476 0.380681 0.243731 3.58455 0.243731 7.54054C0.243731 11.4965 3.4476 14.7004 7.40359 14.7004C11.5354 14.7004 14.2802 11.7993 14.2802 7.7066ZM22.7489 6.51492H20.7075V4.47343H18.6562V6.51492H16.6147V8.56617H18.6562V10.6077H20.7075V8.56617H22.7489V6.51492Z" fill="#709DCA"/>
</svg>
