<svg width="58" height="39" viewBox="0 0 58 39" fill="none" xmlns="http://www.w3.org/2000/svg">
<path d="M44.548 17.9219L30.1339 22.4671C29.7321 22.5926 29.3304 22.6429 28.9286 22.6429C28.5268 22.6429 28.125 22.5926 27.7232 22.4671L13.3092 17.9219L12.8571 25.8571C12.6562 29.3979 20.0642 32.2857 28.9286 32.2857C37.793 32.2857 45.2009 29.3979 45 25.8571L44.548 17.9219ZM57.8571 9.78571C57.8571 9.43415 57.6311 9.13281 57.3047 9.00725L29.1797 0.167966C29.0792 0.142855 29.0039 0.142855 28.9286 0.142855C28.8532 0.142855 28.7779 0.142855 28.6775 0.167966L0.552455 9.00725C0.226004 9.13281 0 9.43415 0 9.78571C0 10.1373 0.226004 10.4386 0.552455 10.5642L8.91462 13.1758C7.3577 15.3605 6.60435 18.5246 6.45368 21.4626C5.49944 22.0151 4.82143 23.0446 4.82143 24.25C4.82143 25.38 5.399 26.3594 6.2779 26.9369L4.82143 37.8103C4.79632 38.0363 4.87165 38.2623 5.02232 38.4381C5.17299 38.6138 5.399 38.7143 5.625 38.7143H10.4464C10.6724 38.7143 10.8984 38.6138 11.0491 38.4381C11.1998 38.2623 11.2751 38.0363 11.25 37.8103L9.79353 26.9369C10.6724 26.3594 11.25 25.38 11.25 24.25C11.25 23.0698 10.6222 22.0653 9.66797 21.5128C9.86886 18.1228 10.8733 15.3605 12.3047 14.2305L28.6775 19.4035C28.7779 19.4286 28.8532 19.4286 28.9286 19.4286C29.0039 19.4286 29.0792 19.4286 29.1797 19.4035L57.3047 10.5642C57.6311 10.4386 57.8571 10.1373 57.8571 9.78571Z" fill="#9ACA40"/>
</svg>
