<svg width="67" height="57" viewBox="0 0 67 57" fill="none" xmlns="http://www.w3.org/2000/svg">
<path d="M66.9236 30.8839C66.9236 14.3705 51.6155 0.428568 33.495 0.428568C15.3744 0.428568 0.0664062 14.3705 0.0664062 30.8839C0.0664062 35.2634 0.869978 39.5223 2.47712 43.5L3.28069 45.4688L10.7137 46.7946C11.8789 51.1741 15.8566 54.4286 20.6378 54.4286V55.7143C20.6378 56.4375 21.2003 57 21.9235 57H24.495C25.2182 57 25.7807 56.4375 25.7807 55.7143V32.5714C25.7807 31.8482 25.2182 31.2857 24.495 31.2857H21.9235C21.2003 31.2857 20.6378 31.8482 20.6378 32.5714V33.8571C16.7807 33.8571 13.4459 35.9866 11.678 39.1205L8.94587 38.6384C8.18248 36.1473 7.78069 33.5759 7.78069 30.8839C7.78069 18.75 19.7941 8.14285 33.495 8.14285C47.1959 8.14285 59.2093 18.75 59.2093 30.8839C59.2093 33.5759 58.8075 36.1473 58.0441 38.6384L55.3119 39.1205C53.5441 35.9866 50.2093 33.8571 46.3521 33.8571V32.5714C46.3521 31.8482 45.7896 31.2857 45.0664 31.2857H42.495C41.7718 31.2857 41.2093 31.8482 41.2093 32.5714V55.7143C41.2093 56.4375 41.7718 57 42.495 57H45.0664C45.7896 57 46.3521 56.4375 46.3521 55.7143V54.4286C51.1334 54.4286 55.1111 51.1741 56.2762 46.7946L63.7093 45.4688L64.5128 43.5C66.12 39.5223 66.9236 35.2634 66.9236 30.8839Z" fill="black"/>
</svg>
