<svg width="187" height="187" viewBox="0 0 187 187" fill="none" xmlns="http://www.w3.org/2000/svg">
<path d="M70.3521 116.286C70.3521 117.732 69.1869 118.857 67.7807 118.857C66.3343 118.857 65.2093 117.732 65.2093 116.286C65.2093 114.879 66.3343 113.714 67.7807 113.714C69.1869 113.714 70.3521 114.879 70.3521 116.286ZM76.7807 95.7143C76.7807 94.308 75.6155 93.1429 74.2093 93.1429H62.6378C61.2316 93.1429 60.0664 94.308 60.0664 95.7143V121.429C60.0664 122.835 61.2316 124 62.6378 124H74.2093C75.6155 124 76.7807 122.835 76.7807 121.429V95.7143ZM124.352 95.7143C124.352 91.5357 120.816 88 116.638 88H105.508C105.83 86.7143 106.232 86.3125 106.674 85.4286C107.758 83.3393 108.924 81.0089 108.924 77.7143C108.924 74.6205 108.924 67.4286 99.9236 67.4286C99.2405 67.4286 98.5977 67.7098 98.1155 68.192C96.3878 69.8795 95.9057 72.3705 95.4637 74.7411C94.9816 77.0714 94.5396 79.4821 92.9727 81.0491C91.7271 82.2946 90.361 84.0223 88.9146 85.8705C87.1468 88.2009 83.2896 92.9821 81.803 93.1027C80.4771 93.2232 79.3521 94.3482 79.3521 95.6741V121.429C79.3521 122.835 80.5575 123.96 81.9235 124C83.3298 124.04 85.7405 124.884 88.2718 125.768C92.6111 127.254 98.0352 129.143 103.781 129.143H104.464H107.517C108.241 129.143 108.803 129.143 108.964 129.143C112.499 129.103 115.151 128.058 116.879 126.009C118.406 124.201 119.089 121.75 118.848 118.737C119.852 117.772 120.616 116.446 121.017 114.96C121.459 113.353 121.459 111.746 121.017 110.259C122.223 108.652 122.825 106.763 122.745 104.754C122.745 104.192 122.584 102.987 122.142 101.701C123.508 100.134 124.352 97.8437 124.352 95.7143Z" fill="#C4CACB"/>
</svg>
