<svg width="16" height="15" viewBox="0 0 16 15" fill="none" xmlns="http://www.w3.org/2000/svg">
<path d="M3.90481 4.89345H0.68141V14.5734H3.90481V4.89345ZM4.10994 1.90447C4.10017 0.956987 3.41642 0.234163 2.31265 0.234163C1.21864 0.234163 0.49582 0.956987 0.49582 1.90447C0.49582 2.83242 1.18934 3.57478 2.27358 3.57478H2.29311C3.41642 3.57478 4.11971 2.83242 4.10994 1.90447ZM15.4993 9.02526C15.4993 6.05582 13.9169 4.66878 11.7973 4.66878C10.0586 4.66878 9.29669 5.63581 8.87667 6.30002H8.8962V4.89345H5.68257C5.68257 4.89345 5.72164 5.80186 5.68257 14.5734H8.8962V9.17178C8.8962 8.87874 8.92551 8.59548 9.00365 8.38058C9.23808 7.80428 9.76555 7.20844 10.6544 7.20844C11.8168 7.20844 12.2857 8.09731 12.2857 9.39644V14.5734H15.4993V9.02526Z" fill="#709DCA"/>
</svg>
