<svg width="43" height="43" viewBox="0 0 43 43" fill="none" xmlns="http://www.w3.org/2000/svg">
<path d="M31.6127 39.9487C26.6741 36.8237 22.6842 32.1083 21.3449 26.5837C20.0335 32.1083 16.0435 36.8237 11.1049 39.9487C14.1462 41.6228 17.6339 42.5714 21.3449 42.5714C25.0837 42.5714 28.5714 41.6228 31.6127 39.9487ZM17.8013 0.104909C7.70089 1.80692 0 10.596 0 21.1987C0 26.4721 1.89732 31.2712 5.05022 35.01C12.5279 31.3828 17.8013 23.1797 17.8013 13.6373V0.104909ZM42.8571 21.1987C42.8571 10.596 35.1563 1.80692 25.0558 0.104909V13.6373C25.0558 23.1797 30.3292 31.3828 37.8069 35.01C40.9598 31.2712 42.8571 26.4721 42.8571 21.1987Z" fill="#9ACA40"/>
</svg>
