<svg width="47" height="62" viewBox="0 0 47 62" fill="none" xmlns="http://www.w3.org/2000/svg">
<path d="M42.7958 31.1429H13.2243V18.2857C13.2243 12.6205 17.8449 8 23.51 8C29.1752 8 33.7958 12.6205 33.7958 18.2857C33.7958 19.692 34.9609 20.8571 36.3672 20.8571H38.9386C40.3449 20.8571 41.51 19.692 41.51 18.2857C41.51 8.3616 33.4342 0.285709 23.51 0.285709C13.5859 0.285709 5.51004 8.3616 5.51004 18.2857V31.1429H4.22433C2.09487 31.1429 0.367188 32.8705 0.367188 35V58.1429C0.367188 60.2723 2.09487 62 4.22433 62H42.7958C44.9252 62 46.6529 60.2723 46.6529 58.1429V35C46.6529 32.8705 44.9252 31.1429 42.7958 31.1429Z" fill="black"/>
</svg>
