<svg width="47" height="47" viewBox="0 0 47 47" fill="none" xmlns="http://www.w3.org/2000/svg">
<path d="M40.1786 9.64286C40.1786 11.1217 38.9788 12.3214 37.5 12.3214C36.0212 12.3214 34.8214 11.1217 34.8214 9.64286C34.8214 8.16406 36.0212 6.96428 37.5 6.96428C38.9788 6.96428 40.1786 8.16406 40.1786 9.64286ZM46.4286 1.60714C46.4286 1.10491 45.9821 0.714284 45.4799 0.714284C35.7701 0.714284 30.4408 2.94643 23.4654 9.89397C21.875 11.5123 20.2288 13.3538 18.5547 15.3348L7.97991 15.8929C7.70089 15.9208 7.42188 16.0882 7.25446 16.3393L1.00446 27.0536C0.809152 27.3884 0.864955 27.8348 1.14397 28.1417L2.92969 29.9275C3.0971 30.0949 3.34821 30.1786 3.57143 30.1786C3.65513 30.1786 3.73884 30.1786 3.82254 30.1507L11.5234 27.779L19.3638 35.6194L16.9922 43.3203C16.9085 43.6272 16.9922 43.9621 17.2154 44.2132L19.0011 45.9989C19.1964 46.1663 19.4196 46.25 19.6429 46.25C19.8103 46.25 19.9498 46.2221 20.0893 46.1384L30.8036 39.8884C31.0547 39.721 31.2221 39.442 31.25 39.1629L31.808 28.5882C33.7891 26.9141 35.6306 25.2679 37.2489 23.6775C43.8616 17.0368 46.4286 10.8705 46.4286 1.60714Z" fill="#9ACA40"/>
</svg>
