<svg width="16" height="13" viewBox="0 0 16 13" fill="none" xmlns="http://www.w3.org/2000/svg">
<path d="M15.6959 1.77381C15.1293 2.01801 14.514 2.19383 13.879 2.26221C14.5335 1.87149 15.0317 1.25612 15.2661 0.523525C14.6605 0.884936 13.9767 1.14867 13.2637 1.28542C12.6874 0.670043 11.8669 0.289095 10.9585 0.289095C9.21 0.289095 7.80342 1.70544 7.80342 3.44412C7.80342 3.68832 7.83273 3.93252 7.88157 4.16695C5.26377 4.0302 2.92925 2.77991 1.37615 0.865401C1.10265 1.33426 0.946364 1.87149 0.946364 2.45757C0.946364 3.55157 1.50313 4.51859 2.35294 5.08513C1.83524 5.06559 1.34685 4.91907 0.926829 4.68464C0.926829 4.69441 0.926829 4.71395 0.926829 4.72372C0.926829 6.25727 2.01106 7.5271 3.45671 7.82014C3.19298 7.88851 2.90971 7.92758 2.62644 7.92758C2.42132 7.92758 2.22596 7.90805 2.0306 7.87874C2.43108 9.12903 3.59346 10.0374 4.9805 10.0668C3.89627 10.9166 2.53853 11.4147 1.06358 11.4147C0.799846 11.4147 0.555649 11.405 0.301684 11.3756C1.69849 12.2743 3.35903 12.792 5.14656 12.792C10.9487 12.792 14.1232 7.98619 14.1232 3.8153C14.1232 3.67855 14.1232 3.5418 14.1135 3.40505C14.7289 2.95573 15.2661 2.39896 15.6959 1.77381Z" fill="#FFC155"/>
</svg>
